<svg width="224" height="213" viewBox="0 0 224 213" fill="none" xmlns="http://www.w3.org/2000/svg">
<path d="M117.5 182.161C91.1092 181.848 84.1103 179.382 58.6655 180.378C48.9398 180.759 29.9315 181.503 29.7825 183.944C29.5918 187.071 60.4253 191.971 83.6255 194.285C146.785 200.582 207.016 193.055 207 188.223C206.99 184.856 177.715 182.211 164.925 181.448C144.402 180.225 143.175 182.466 117.5 182.162V182.161Z" fill="#D8DEE8"/>
<path d="M185.833 165.952C181.044 170.888 176.759 173.79 173.478 175.981C141.479 197.347 104.9 191.189 93.5907 189.084C75.3449 185.688 59.9422 183.293 46.709 171.337C16.6393 144.171 18.1018 87.4984 41.0788 52.392C43.8032 48.2297 66.7455 14.2224 103.403 9.42986C104.3 9.31249 104.968 9.24579 105.555 9.18377C111.226 8.58353 146.367 5.41429 175.021 29.421C179.123 32.8577 185.724 39.0561 191.845 48.5092C214.227 83.076 214.298 136.612 185.833 165.951V165.952Z" fill="#E1F2FF"/>
<path d="M149.546 167.461C151.954 162.144 154.71 153.926 153.569 144.347C152.26 133.348 147.01 130.605 143.332 118.6C138.083 101.462 147.326 90.4662 140.593 84.6717C137.31 81.8461 131.731 81.2374 128.025 83.3138C117.451 89.2379 116.834 119.978 131.115 133.551C137.573 139.69 143.788 139.72 148.317 147.248C152.319 153.899 151.072 161.966 149.546 167.461Z" fill="url(#paint0_linear_70_293)"/>
<mask id="mask0_70_293" style="mask-type:luminance" maskUnits="userSpaceOnUse" x="120" y="82" width="34" height="86">
<path d="M149.546 167.461C151.954 162.144 154.71 153.926 153.569 144.347C152.26 133.348 147.01 130.605 143.332 118.6C138.083 101.462 147.326 90.4662 140.593 84.6717C137.31 81.8461 131.731 81.2374 128.025 83.3138C117.451 89.2379 116.834 119.978 131.115 133.551C137.573 139.69 143.788 139.72 148.317 147.248C152.319 153.899 151.072 161.966 149.546 167.461Z" fill="white"/>
</mask>
<g mask="url(#mask0_70_293)">
<g style="mix-blend-mode:soft-light" opacity="0.5">
<path d="M152.134 153.711L152.36 153.679C152.021 151.286 151.472 148.91 150.73 146.617C149.024 141.344 146.843 138.315 144.081 134.479C142.289 131.989 140.257 129.167 137.988 125.194C133.745 117.762 132.46 115.175 131.498 111.137C129.595 103.139 130.767 96.2812 131.633 92.9054C132.863 88.1157 134.999 83.6632 137.981 79.671L137.798 79.5348C134.799 83.5515 132.65 88.031 131.413 92.8489C130.541 96.2453 129.363 103.144 131.277 111.19C132.245 115.257 133.534 117.853 137.791 125.307C140.065 129.291 142.101 132.118 143.896 134.612C146.646 138.432 148.818 141.449 150.514 146.687C151.252 148.968 151.797 151.331 152.135 153.712L152.134 153.711Z" fill="white"/>
<path d="M130.57 105.614L130.594 105.428C131.964 94.6049 145.393 92.3032 145.529 92.2814L145.492 92.0567C145.458 92.0624 142.024 92.6351 138.465 94.5542C135.209 96.3102 131.185 99.5782 130.393 105.209C129.79 104.755 127.513 102.93 125.607 99.9069C123.574 96.6819 121.558 91.3928 123.505 84.5101L123.286 84.4478C121.315 91.4152 123.358 96.7705 125.42 100.036C127.652 103.572 130.389 105.489 130.416 105.507L130.57 105.614Z" fill="white"/>
<path d="M131.434 124.005C134.489 124.005 136.697 123.293 136.743 123.277L136.833 123.247L136.819 123.153C135.184 112.204 142.863 107.514 142.942 107.469L142.825 107.273C142.746 107.32 134.982 112.061 136.58 123.09C135.59 123.386 126.801 125.774 120.305 119.48L120.147 119.644C123.775 123.16 128.107 124.006 131.434 124.006V124.005Z" fill="white"/>
<path d="M136.729 135.389C137.627 135.389 138.418 135.316 139.095 135.208C141.856 134.77 143.322 133.716 143.383 133.671L143.449 133.623L143.425 133.546C141.573 127.631 146.021 118.754 146.066 118.664L145.863 118.561C145.818 118.65 141.369 127.529 143.183 133.532C142.505 133.974 136.707 137.407 127.141 132.685L127.04 132.889C130.975 134.832 134.258 135.389 136.73 135.389L136.729 135.389Z" fill="white"/>
</g>
</g>
<path d="M154.852 165.494C156.102 161.013 157.31 153.933 154.288 147.155C149.016 135.332 136.803 137.737 126.791 124.595C118.716 113.997 122.401 106.841 112.99 99.3573C111.415 98.1047 103.117 91.2522 96.0864 94.0726C92.1244 95.6623 90.3222 99.6128 89.9838 100.354C84.8706 111.564 94.7368 131.056 109.269 141.06C117.619 146.807 120.65 145.555 135.653 152.83C144.468 157.105 150.896 162.075 154.853 165.494H154.852Z" fill="url(#paint1_linear_70_293)"/>
<mask id="mask1_70_293" style="mask-type:luminance" maskUnits="userSpaceOnUse" x="88" y="93" width="69" height="73">
<path d="M154.852 165.494C156.102 161.013 157.31 153.933 154.288 147.155C149.016 135.332 136.803 137.737 126.791 124.595C118.716 113.997 122.401 106.841 112.99 99.3573C111.415 98.1047 103.117 91.2522 96.0864 94.0726C92.1244 95.6623 90.3222 99.6128 89.9838 100.354C84.8706 111.564 94.7368 131.056 109.269 141.06C117.619 146.807 120.65 145.555 135.653 152.83C144.468 157.105 150.896 162.075 154.853 165.494H154.852Z" fill="white"/>
</mask>
<g mask="url(#mask1_70_293)">
<g style="mix-blend-mode:soft-light" opacity="0.7">
<path d="M155.56 171.131L155.786 171.109C154.699 159.946 151.184 152.142 145.338 147.914C142.475 145.844 140.076 145.305 137.536 144.735C134.811 144.123 131.993 143.49 128.476 140.805C125.059 138.196 123.979 135.923 122.611 133.045C121.378 130.451 119.844 127.224 116.1 122.739C112.819 118.809 110.33 116.866 108.134 115.152C105.76 113.299 103.884 111.834 101.887 108.531C98.6251 103.134 97.332 96.5259 98.0428 88.892L97.8155 88.8708C97.1003 96.5548 98.4043 103.209 101.692 108.649C103.71 111.988 105.601 113.464 107.994 115.332C110.181 117.039 112.66 118.974 115.925 122.886C119.649 127.348 121.177 130.561 122.404 133.143C123.785 136.049 124.876 138.344 128.338 140.987C131.894 143.703 134.737 144.341 137.485 144.958C140.002 145.523 142.378 146.057 145.203 148.099C150.994 152.287 154.478 160.035 155.558 171.131L155.56 171.131Z" fill="white"/>
<path d="M109.162 116.116L109.131 115.967C109.098 115.81 105.849 100.153 112.094 94.5131L111.941 94.3442C105.931 99.7733 108.558 114.233 108.878 115.865C100.588 115.18 94.78 111.383 91.3604 108.307C87.6302 104.953 85.8575 101.71 85.8402 101.678L85.6398 101.785C85.6572 101.818 87.4446 105.09 91.2019 108.47C94.6695 111.59 100.574 115.447 109.011 116.104L109.164 116.116H109.162Z" fill="white"/>
<path d="M110.08 129.067C115.699 129.067 119.611 127.828 119.651 127.815L119.744 127.785L119.729 127.688C119.039 123.445 119.579 118.438 120.153 114.985C120.776 111.24 121.573 108.463 121.582 108.436L121.363 108.373C121.331 108.483 118.2 119.462 119.489 127.626C118.847 127.818 114.957 128.905 109.609 128.836C104.23 128.769 96.2339 127.489 88.6873 121.772L88.5499 121.954C96.1492 127.711 104.2 128.998 109.615 129.064C109.772 129.066 109.927 129.067 110.081 129.067L110.08 129.067Z" fill="white"/>
<path d="M116.606 148.325C121.544 148.325 125.546 147.61 128.336 146.884C132.662 145.758 135.098 144.361 135.122 144.347L135.226 144.286L135.161 144.185C129.97 136.23 133.614 124.407 133.651 124.288L133.434 124.22C133.396 124.339 129.752 136.162 134.903 144.207C133.816 144.793 124.404 149.556 109.782 147.648L109.752 147.874C112.195 148.193 114.487 148.325 116.606 148.325Z" fill="white"/>
</g>
</g>
<path d="M155.433 161.635C153.093 159.535 149.225 156.444 143.853 153.856C134.298 149.253 129.517 150.836 125.766 146.178C121.884 141.355 125.17 137.378 120.484 131.955C120.089 131.499 115.043 125.811 109.772 127.152C106.085 128.091 104.269 131.965 103.416 133.784C100.108 140.84 100.355 152.167 107.576 158.525C114.422 164.553 124.078 163.083 127.146 162.596C132.528 161.741 133.989 159.838 139.443 159.126C146.077 158.261 151.759 160.053 155.433 161.635Z" fill="url(#paint2_linear_70_293)"/>
<mask id="mask2_70_293" style="mask-type:luminance" maskUnits="userSpaceOnUse" x="101" y="126" width="55" height="38">
<path d="M155.433 161.635C153.093 159.535 149.225 156.444 143.853 153.856C134.298 149.253 129.517 150.836 125.766 146.178C121.884 141.355 125.17 137.378 120.484 131.955C120.089 131.499 115.043 125.811 109.772 127.152C106.085 128.091 104.269 131.965 103.416 133.784C100.108 140.84 100.355 152.167 107.576 158.525C114.422 164.553 124.078 163.083 127.146 162.596C132.528 161.741 133.989 159.838 139.443 159.126C146.077 158.261 151.759 160.053 155.433 161.635Z" fill="white"/>
</mask>
<g mask="url(#mask2_70_293)">
<g style="mix-blend-mode:soft-light" opacity="0.7">
<path d="M157.319 163.532L157.472 163.364C151.776 158.163 145.964 155.373 140.199 155.072C137.677 154.94 135.858 155.306 134.1 155.66C131.907 156.103 129.835 156.52 126.529 156.021C120.577 155.121 115.696 152.539 112.786 148.749C108.278 142.88 108.123 133.836 112.39 125.709L112.189 125.603C107.88 133.808 108.044 142.948 112.605 148.888C115.552 152.725 120.485 155.337 126.495 156.246C129.84 156.752 131.932 156.33 134.145 155.884C135.89 155.532 137.695 155.167 140.187 155.299C145.899 155.598 151.662 158.368 157.319 163.532Z" fill="white"/>
<path d="M110.697 145.209L110.703 145.034C111.028 135.21 123.442 131.088 123.567 131.047L123.497 130.83C123.371 130.871 110.956 134.991 110.483 144.847C109.258 144.206 101.288 139.759 101.486 132.79L101.258 132.784C101.041 140.442 110.445 145.086 110.54 145.132L110.698 145.208L110.697 145.209Z" fill="white"/>
<path d="M113.586 157.126C114.163 157.126 114.706 157.102 115.212 157.061C119.403 156.72 122.003 155.176 122.029 155.16L122.124 155.103L122.069 155.006C117.218 146.521 125.121 137.855 125.201 137.769L125.034 137.613C124.953 137.701 117 146.423 121.814 155.02C121.312 155.296 118.874 156.537 115.18 156.835C111.357 157.144 105.368 156.477 98.5428 151.546L98.4093 151.731C104.395 156.055 109.75 157.126 113.585 157.126H113.586Z" fill="white"/>
</g>
</g>
<rect width="223.725" height="212.103" rx="89.3448" fill="#044E9E" style="mix-blend-mode:overlay"/>
<path d="M129.96 54.1191C129.96 54.1191 131.013 53.9727 130.685 51.9612C130.427 50.385 130.622 49.8547 130.994 50.134C131.366 50.4133 131.419 51.3243 131.419 51.3243C131.419 51.3243 132.776 50.1667 133.336 48.6496C133.895 47.1324 134.254 48.4101 134.374 49.1683C134.494 49.9272 133.575 52.2822 133.056 52.7214C132.538 53.1606 131.779 55.0963 131.779 55.0963L129.96 54.1191H129.96Z" fill="url(#paint3_linear_70_293)"/>
<path d="M126.349 73.4169L124.964 70.7672V67.1474L127.629 73.4169H126.349Z" fill="url(#paint4_linear_70_293)"/>
<path d="M88.0988 177.233C88.0988 177.233 95.0778 180.405 95.1915 180.912C95.3058 181.418 90.7036 180.742 88.825 180.815C86.9464 180.888 85.401 180.333 85.5711 179.537C85.7413 178.742 86.3987 176.74 86.3987 176.74L88.0988 177.233Z" fill="url(#paint5_linear_70_293)"/>
<path d="M88.3535 174.66L87.9291 177.802C87.9291 177.802 86.8242 178.195 86.082 177.73L85.7654 174.284L88.3535 174.66Z" fill="url(#paint6_linear_70_293)"/>
<path d="M55.4885 174.735L54.6769 176.038C54.4497 176.403 54.3822 176.841 54.4914 177.257C54.7752 178.34 55.3421 180.452 55.5893 181.003C55.9257 181.753 60.4418 182.198 60.4418 182.198C60.4418 182.198 60.8444 181.631 59.907 180.947C58.9696 180.263 58.3668 180.155 58.0355 179.145C57.7048 178.135 57.4839 175.278 57.4839 175.278L55.4885 174.735V174.735Z" fill="url(#paint7_linear_70_293)"/>
<path d="M58.8672 171.423C58.5706 171.659 57.1202 176.062 57.1202 176.062C57.1202 176.062 56.6509 176.662 55.7591 175.776C54.8673 174.89 55.3552 175.379 55.3552 175.379L55.5221 171.049L58.8672 171.423Z" fill="url(#paint8_linear_70_293)"/>
<path d="M92.1935 111.533C92.5614 120.906 92.5768 131.089 92.0374 141.967C91.4301 154.217 90.2102 165.54 88.6725 175.803C88.1011 175.821 87.5001 175.824 86.8729 175.807C86.4491 175.795 86.0382 175.775 85.6421 175.747C84.844 173.619 83.9008 170.82 83.0559 167.478C82.168 163.962 81.6319 160.809 81.2505 157.794C79.9067 147.178 81.4816 146.252 80.3908 138.385C79.4252 131.417 78.0512 131.145 76.439 121.252C74.6895 110.519 75.9922 108.908 76.6252 108.326C79.3218 105.85 85.6555 107.536 92.1941 111.533H92.1935Z" fill="url(#paint9_linear_70_293)"/>
<path style="mix-blend-mode:multiply" opacity="0.3" d="M76.6246 108.326C79.1966 105.964 85.0778 107.394 91.2895 110.999C84.1436 118.72 83.3641 123.728 84.2206 126.978C85.1888 130.651 88.1326 131.709 88.121 135.725C88.1069 140.661 83.6531 141.969 83.7474 147.191C83.8104 150.644 85.7673 150.608 86.2296 154.874C86.7766 159.921 84.2193 161.66 85.0476 165.395C85.4039 167.001 86.4209 169.101 89.3172 171.263C89.1085 172.796 88.8941 174.315 88.6713 175.804C88.0998 175.822 87.4989 175.825 86.8716 175.807C86.4479 175.795 86.037 175.775 85.6408 175.747C84.8428 173.619 83.8996 170.82 83.0547 167.478C82.1667 163.962 81.6306 160.809 81.2493 157.794C79.9055 147.178 81.4804 146.252 80.3896 138.385C79.4239 131.417 78.05 131.145 76.4378 121.252C74.6882 110.518 75.9903 108.907 76.624 108.326H76.6246Z" fill="url(#paint10_linear_70_293)"/>
<path d="M87.7665 111.376C81.6132 120.379 74.9764 131.584 69.0414 144.996C64.5561 155.132 61.3028 164.648 58.9144 173.129C58.5915 173.279 57.8287 173.578 56.8547 173.449C55.5257 173.273 54.7296 172.425 54.5216 172.188C53.5495 166.108 53.6567 160.96 53.9867 157.243C54.198 154.864 54.5716 150.902 56.0888 146.01C57.7876 140.531 58.9555 140.223 61.1718 134.426C63.4723 128.41 62.915 126.908 65.1178 119.378C66.0225 116.285 67.5377 111.682 70.0372 106.176C75.9472 107.909 81.8578 109.643 87.7678 111.377L87.7665 111.376Z" fill="url(#paint11_linear_70_293)"/>
<path d="M90.0706 60.4644C90.0706 60.4644 89.8696 63.1006 88.9887 65.0518C88.1926 66.8155 84.2633 67.8177 83.4614 68.192C82.6595 68.5663 84.8918 69.8023 87.1634 70.1021C89.4343 70.4019 95.9568 70.086 97.1562 69.2585C98.3555 68.4309 96.2387 68.4309 94.631 67.783C93.0233 67.1359 92.1816 63.9263 92.5135 62.492C92.8455 61.057 90.0706 60.4637 90.0706 60.4637V60.4644Z" fill="url(#paint12_linear_70_293)"/>
<path d="M93.3491 58.4497C94.5458 56.862 94.036 53.7448 92.9683 53.3448C92.6634 53.2306 92.4566 53.3917 89.4127 55.8835C87.9013 57.1207 87.1662 57.7576 87.1264 58.6096C87.102 59.1297 87.3273 59.7505 87.6721 60.1877C87.85 60.4125 88.1395 60.6712 88.7514 61.145C89.2946 61.5662 89.2637 61.5553 89.4275 61.676C89.821 61.9656 90.5517 62.431 91.7561 62.8593C91.724 62.5678 91.7029 62.1999 91.7292 61.7839C91.7395 61.6233 91.7863 60.9948 91.9911 60.4131C92.3436 59.4122 92.96 58.9653 93.3484 58.4497H93.3491Z" fill="url(#paint13_linear_70_293)"/>
<path d="M90.2852 62.5291C90.2852 62.5291 91.7677 63.7163 93.5738 62.924C95.1911 62.2152 94.0855 58.4123 92.741 58.0085C92.2929 57.8737 91.5462 58.0213 91.03 58.3905C90.725 58.6088 90.6614 58.7918 90.1562 59.1391C89.69 59.4589 89.5244 59.455 89.4165 59.6419C89.2817 59.8756 89.2849 60.3282 90.0034 61.2964C89.5713 61.0909 89.1475 61.1057 88.9247 61.3304C88.8894 61.3664 88.8034 61.4852 88.7822 61.6251C88.7045 62.1336 89.2888 62.5349 90.2852 62.5285V62.5291Z" fill="url(#paint14_linear_70_293)"/>
<path d="M94.8022 70.6351C100.684 68.5208 105.052 78.0417 113.954 76.7139C119.881 75.8298 124.03 70.6999 126.938 72.628C127.885 73.2552 128.271 74.3454 128.448 75.1159C127.326 77.8889 124.295 84.2399 117.513 88.0152C107.578 93.5451 92.5172 91.9233 89.4052 84.6618C87.3655 79.901 90.2675 72.2652 94.8022 70.6351Z" fill="url(#paint15_linear_70_293)"/>
<path d="M62.7354 114.685C65.303 117.01 69.7497 117.199 70.7205 117.24C75.2899 117.434 75.9422 115.45 80.4622 115.644C84.9963 115.837 86.1912 117.908 89.4052 117.081C89.9747 116.935 92.1994 116.288 94.5634 113.199C101.263 104.444 95.6626 94.8112 102.341 82.4269C103.348 80.5598 104.233 78.9181 106.014 77.157C111.778 71.4576 117.273 74.0495 124.536 69.4756C130.494 65.7235 134.493 58.1808 132.764 54.7805C131.98 53.2396 131.301 53.4431 130.248 53.3192C128.479 56.3182 124.103 59.9759 119.068 62.1056C114.29 64.1261 110.609 63.1604 103.299 63.2625C98.8311 63.3248 91.1619 63.4327 85.0798 65.6098C69.8711 71.0544 64.2404 89.5683 62.5756 95.043C61.12 99.8282 57.9336 110.338 62.7354 114.686V114.685Z" fill="url(#paint16_linear_70_293)"/>
<path style="mix-blend-mode:multiply" opacity="0.3" d="M75.1918 110.48C73.5334 108.34 82.0892 102.448 80.9413 95.5739C79.9743 89.7859 73.1135 89.208 71.3594 83.8624C70.6018 81.553 70.7437 78.1906 73.97 73.1865C66.8966 80.8576 63.7493 91.1842 62.5763 95.041C61.1207 99.8261 57.9343 110.336 62.7361 114.684C65.3037 117.009 69.7504 117.199 70.7212 117.24C75.2906 117.434 75.943 115.45 80.4629 115.643C84.997 115.836 86.1919 117.907 89.4059 117.08C89.9754 116.934 92.2001 116.287 94.5641 113.198C94.5994 113.152 94.6296 113.106 94.6636 113.059C92.8788 111.359 90.7375 109.986 88.1816 109.415C81.8857 108.008 76.5356 112.212 75.1924 110.48H75.1918Z" fill="url(#paint17_linear_70_293)"/>
<path d="M147.579 129.069L125.479 126.367V93.772L147.579 89.5857V129.069Z" fill="url(#paint18_linear_70_293)"/>
<path d="M174.537 127.352L147.579 129.069V89.5856L174.537 93.3071V127.352Z" fill="url(#paint19_linear_70_293)"/>
<g style="mix-blend-mode:soft-light">
<path d="M157.741 90.9887V107.088L166.715 107.803V92.2272L157.741 90.9887Z" fill="white"/>
</g>
<path d="M184.222 176.17L143.223 179.053V119.005L184.222 121.888V176.17Z" fill="url(#paint20_linear_70_293)"/>
<path d="M143.224 179.053L109.611 174.944V122.838L143.224 119.005V179.053Z" fill="url(#paint21_linear_70_293)"/>
<g style="mix-blend-mode:soft-light">
<path d="M157.737 120.026V144.391H171.474V120.992L157.737 120.026Z" fill="white"/>
</g>
<path d="M106.576 176.448C105.022 176.325 103.033 175.893 101.125 174.645C99.0603 173.296 96.3713 170.521 97.0729 168.773C97.335 168.12 98.0893 167.562 98.7529 167.615C99.7326 167.693 99.8466 169.055 101.548 170.534C101.862 170.808 103.488 172.222 104.296 171.746C104.698 171.509 104.817 170.852 104.751 170.353C104.56 168.893 102.777 168.669 101.064 167.089C99.3271 165.487 97.8792 162.692 98.7068 160.803C99.1824 159.717 100.441 158.859 101.268 159.101C101.621 159.203 101.845 159.493 102.918 161.811C103.8 163.714 103.995 164.269 104.563 164.449C105.147 164.634 106.056 164.401 106.402 163.826C107.302 162.326 103.413 160.112 103.061 155.915C102.902 154.034 103.411 151.246 105.115 150.649C106.266 150.245 107.906 150.861 108.499 151.918C109.034 152.87 108.385 153.587 108.792 155.726C108.916 156.375 109.17 157.711 109.708 157.781C110.339 157.863 111.045 156.16 111.208 155.745C112.436 152.621 111.028 151.016 112.186 149.5C113.089 148.317 115.055 147.842 116.611 148.44C117.974 148.962 119.063 150.321 119.136 151.729C119.21 153.162 118.005 154.588 115.595 157.441C114.452 158.793 113.543 159.708 113.595 161.052C113.62 161.708 113.879 162.629 114.349 162.713C115.385 162.899 115.895 158.727 118.351 158.082C119.608 157.752 121.17 158.4 121.856 159.534C122.697 160.922 122.133 162.889 121.077 163.924C119.698 165.274 118.285 164.248 115.691 165.698C114.54 166.342 112.732 167.709 112.996 168.841C113.112 169.334 113.628 169.816 114.195 169.881C115.465 170.025 115.885 167.943 117.927 167.028C119.398 166.368 121.433 166.44 121.917 167.269C122.599 168.441 120.176 171.1 118.887 172.276C117.33 173.696 113.657 176.391 106.575 176.447L106.576 176.448Z" fill="url(#paint22_linear_70_293)"/>
<path opacity="0.5" d="M107.274 175.78C107.069 172.298 109.375 165.206 111.053 161.853C112.695 158.572 114.265 153.382 114.281 153.33L114.383 153.36C114.367 153.412 112.794 158.612 111.148 161.9C109.475 165.243 107.176 172.309 107.38 175.774L107.273 175.78L107.274 175.78Z" fill="white"/>
<path d="M102.913 176.902C101.742 175.277 100.026 172.345 99.7182 168.424C99.5915 166.808 99.3434 163.651 101.275 160.928C102.237 159.571 104.278 157.564 105.657 158.143C106.545 158.516 107.095 159.932 106.845 161.01C106.592 162.096 105.675 162.197 104.674 164.041C104.304 164.723 103.881 165.524 104.206 165.977C104.477 166.355 105.222 166.423 105.781 166.197C106.935 165.728 106.575 164.292 107.822 163.261C108.709 162.529 110.188 162.184 110.827 162.785C111.381 163.306 111.284 164.523 110.795 165.335C110.01 166.635 108.604 166.253 107.688 167.674C107.281 168.304 106.992 169.256 107.348 169.633C107.753 170.061 108.946 169.691 109.711 169.216C110.721 168.59 110.759 167.925 111.423 167.841C112.165 167.748 113.093 168.455 113.237 169.236C113.441 170.33 112.098 171.511 111.034 172.024C109.673 172.681 108.661 172.295 107.996 173.192C107.752 173.522 107.529 174.058 107.729 174.385C108.014 174.85 109.046 174.696 109.731 174.594C111.399 174.346 111.858 173.741 112.455 174.035C113.06 174.332 113.372 175.337 113.111 176.042C112.965 176.433 112.529 177.04 110.364 177.42C108.85 177.686 106.305 177.873 102.912 176.902L102.913 176.902Z" fill="url(#paint23_linear_70_293)"/>
<path d="M186.565 57.9134C186.565 72.2857 174.984 84.7106 160.654 85.6689C146.275 86.63 134.583 75.6884 134.583 61.2274C134.583 46.7664 146.275 34.3342 160.654 33.4619C174.984 32.5928 186.565 43.5411 186.565 57.9134Z" fill="url(#paint24_linear_70_293)"/>
<path d="M159.738 73.6909C158.611 73.7649 157.563 73.2401 156.979 72.3037L147.181 56.5702C146.263 55.0956 146.758 53.0762 148.286 52.0598C149.812 51.0441 151.794 51.4149 152.711 52.8888L159.506 63.8104L168.472 45.5499C169.277 43.9113 171.21 43.1596 172.789 43.8699C174.368 44.5802 174.996 46.4836 174.193 48.1216L162.606 71.7381C162.075 72.8192 161.021 73.5635 159.852 73.6809C159.814 73.6849 159.776 73.6876 159.738 73.6902V73.6909Z" fill="white"/>
<defs>
<linearGradient id="paint0_linear_70_293" x1="125.245" y1="93.8196" x2="150.9" y2="135.133" gradientUnits="userSpaceOnUse">
<stop stop-color="#E38DDD"/>
<stop offset="1" stop-color="#9571F6"/>
</linearGradient>
<linearGradient id="paint1_linear_70_293" x1="111.901" y1="100.629" x2="134.221" y2="167.22" gradientUnits="userSpaceOnUse">
<stop stop-color="#AA80F9"/>
<stop offset="1" stop-color="#6165D7"/>
</linearGradient>
<linearGradient id="paint2_linear_70_293" x1="101.398" y1="134.725" x2="168.042" y2="189.469" gradientUnits="userSpaceOnUse">
<stop stop-color="#E38DDD"/>
<stop offset="1" stop-color="#9571F6"/>
</linearGradient>
<linearGradient id="paint3_linear_70_293" x1="129.96" y1="51.5182" x2="134.384" y2="51.5182" gradientUnits="userSpaceOnUse">
<stop stop-color="#311944"/>
<stop offset="1" stop-color="#893976"/>
</linearGradient>
<linearGradient id="paint4_linear_70_293" x1="124.964" y1="70.2825" x2="127.629" y2="70.2825" gradientUnits="userSpaceOnUse">
<stop stop-color="#311944"/>
<stop offset="1" stop-color="#893976"/>
</linearGradient>
<linearGradient id="paint5_linear_70_293" x1="91.4792" y1="166.229" x2="89.7457" y2="188.294" gradientUnits="userSpaceOnUse">
<stop stop-color="#311944"/>
<stop offset="1" stop-color="#A03976"/>
</linearGradient>
<linearGradient id="paint6_linear_70_293" x1="87.0039" y1="178.514" x2="87.3185" y2="155.661" gradientUnits="userSpaceOnUse">
<stop stop-color="#FFC444"/>
<stop offset="1" stop-color="#F36F56"/>
</linearGradient>
<linearGradient id="paint7_linear_70_293" x1="58.7167" y1="163.656" x2="56.9832" y2="185.72" gradientUnits="userSpaceOnUse">
<stop stop-color="#311944"/>
<stop offset="1" stop-color="#A03976"/>
</linearGradient>
<linearGradient id="paint8_linear_70_293" x1="56.9783" y1="178.1" x2="57.2935" y2="155.246" gradientUnits="userSpaceOnUse">
<stop stop-color="#FFC444"/>
<stop offset="1" stop-color="#F36F56"/>
</linearGradient>
<linearGradient id="paint9_linear_70_293" x1="92.4573" y1="141.493" x2="75.5607" y2="141.493" gradientUnits="userSpaceOnUse">
<stop stop-color="#444B8C"/>
<stop offset="1" stop-color="#3E4177"/>
</linearGradient>
<linearGradient id="paint10_linear_70_293" x1="92.4574" y1="141.493" x2="75.5608" y2="141.493" gradientUnits="userSpaceOnUse">
<stop stop-color="#444B8C"/>
<stop offset="1" stop-color="#3E4177"/>
</linearGradient>
<linearGradient id="paint11_linear_70_293" x1="87.7665" y1="139.827" x2="53.7518" y2="139.827" gradientUnits="userSpaceOnUse">
<stop stop-color="#444B8C"/>
<stop offset="1" stop-color="#3E4177"/>
</linearGradient>
<linearGradient id="paint12_linear_70_293" x1="89.8112" y1="63.995" x2="91.7277" y2="79.0066" gradientUnits="userSpaceOnUse">
<stop stop-color="#311944"/>
<stop offset="1" stop-color="#893976"/>
</linearGradient>
<linearGradient id="paint13_linear_70_293" x1="90.8971" y1="61.0654" x2="90.0451" y2="50.8447" gradientUnits="userSpaceOnUse">
<stop stop-color="#26264F"/>
<stop offset="1" stop-color="#444B8C"/>
</linearGradient>
<linearGradient id="paint14_linear_70_293" x1="85.5996" y1="54.4259" x2="93.4781" y2="62.7301" gradientUnits="userSpaceOnUse">
<stop stop-color="#311944"/>
<stop offset="1" stop-color="#893976"/>
</linearGradient>
<linearGradient id="paint15_linear_70_293" x1="88.7664" y1="92.3265" x2="134.76" y2="57.8314" gradientUnits="userSpaceOnUse">
<stop stop-color="#6165D7"/>
<stop offset="1" stop-color="#AA80F9"/>
</linearGradient>
<linearGradient id="paint16_linear_70_293" x1="102.068" y1="134.189" x2="94.8986" y2="65.231" gradientUnits="userSpaceOnUse">
<stop stop-color="#6165D7"/>
<stop offset="1" stop-color="#AA80F9"/>
</linearGradient>
<linearGradient id="paint17_linear_70_293" x1="80.1252" y1="136.649" x2="72.8855" y2="67.0197" gradientUnits="userSpaceOnUse">
<stop stop-color="#AA80F9"/>
<stop offset="1" stop-color="#6165D7"/>
</linearGradient>
<linearGradient id="paint18_linear_70_293" x1="147.855" y1="92.2927" x2="123.599" y2="133.257" gradientUnits="userSpaceOnUse">
<stop stop-color="#FFC444"/>
<stop offset="0.31" stop-color="#FBA94A"/>
<stop offset="1" stop-color="#F36F56"/>
</linearGradient>
<linearGradient id="paint19_linear_70_293" x1="170.047" y1="93.287" x2="144.889" y2="135.777" gradientUnits="userSpaceOnUse">
<stop stop-color="#FFC444"/>
<stop offset="0.31" stop-color="#FBA94A"/>
<stop offset="1" stop-color="#F36F56"/>
</linearGradient>
<linearGradient id="paint20_linear_70_293" x1="178.489" y1="122.648" x2="138.877" y2="189.549" gradientUnits="userSpaceOnUse">
<stop stop-color="#FFC444"/>
<stop offset="0.31" stop-color="#FBA94A"/>
<stop offset="1" stop-color="#F36F56"/>
</linearGradient>
<linearGradient id="paint21_linear_70_293" x1="143.088" y1="122.793" x2="106.199" y2="185.094" gradientUnits="userSpaceOnUse">
<stop stop-color="#FFC444"/>
<stop offset="0.31" stop-color="#FBA94A"/>
<stop offset="1" stop-color="#F36F56"/>
</linearGradient>
<linearGradient id="paint22_linear_70_293" x1="121.332" y1="143.597" x2="108.004" y2="169.028" gradientUnits="userSpaceOnUse">
<stop stop-color="#3A42FF"/>
<stop offset="1" stop-color="#6165D7"/>
</linearGradient>
<linearGradient id="paint23_linear_70_293" x1="112.018" y1="162.731" x2="96.721" y2="181.069" gradientUnits="userSpaceOnUse">
<stop stop-color="#939ADE"/>
<stop offset="1" stop-color="#9571F6"/>
</linearGradient>
<linearGradient id="paint24_linear_70_293" x1="134.583" y1="59.5707" x2="186.565" y2="59.5707" gradientUnits="userSpaceOnUse">
<stop stop-color="#063691"/>
<stop offset="1" stop-color="#6165D7"/>
</linearGradient>
</defs>
</svg>
